<?xml version="1.0" encoding="UTF-8" standalone="no"?>
<!DOCTYPE svg PUBLIC "-//W3C//DTD SVG 1.1//EN" "http://www.w3.org/Graphics/SVG/1.1/DTD/svg11.dtd">
<svg width="100%" height="100%" viewBox="0 0 138 138" version="1.1" xmlns="http://www.w3.org/2000/svg" xmlns:xlink="http://www.w3.org/1999/xlink" xml:space="preserve" xmlns:serif="http://www.serif.com/" style="fill-rule:evenodd;clip-rule:evenodd;stroke-linejoin:round;stroke-miterlimit:2;">
    <g>
        <g>
            <path d="M128.942,77.41L129.812,76.836C131.505,75.665 131.903,73.353 130.731,71.671C129.549,69.974 127.224,69.591 125.566,70.746C67.555,111.304 25.327,72.742 23.553,71.085C22.056,69.684 19.697,69.755 18.303,71.243C16.902,72.737 16.97,75.074 18.452,76.48C18.532,76.556 19.853,77.765 22.264,79.554L14.833,91.809C13.773,93.557 14.329,95.839 16.078,96.908C16.676,97.268 17.355,97.449 18.012,97.449C19.261,97.449 20.477,96.814 21.184,95.671L28.45,83.698C32.524,86.178 37.748,88.886 43.972,91.174L40.391,103.146C39.798,105.117 40.907,107.173 42.866,107.759L43.934,107.917C45.517,107.917 46.997,106.877 47.479,105.268L51.025,93.46C56.77,95.031 63.197,96.092 70.133,96.344L70.133,108.202C70.133,110.254 71.79,111.911 73.842,111.911C75.892,111.911 77.55,110.254 77.55,108.202L77.55,96.278C83.602,95.946 90.016,94.905 96.713,92.995L101.278,105.033C101.847,106.516 103.257,107.424 104.746,107.424L106.058,107.19C107.973,106.462 108.944,104.323 108.216,102.409L103.771,90.68C109.869,88.415 116.172,85.433 122.682,81.477L128.691,89.498C129.423,90.467 130.54,90.987 131.656,90.987C132.434,90.987 133.211,90.751 133.878,90.242C135.522,89.012 135.854,86.687 134.63,85.05L128.942,77.41Z" style="fill:rgb(255,211,124);fill-rule:nonzero;"/>
            <path d="M136.987,48.4C136.987,48.4 135.508,46.252 132.384,43.385C130.857,41.872 128.854,40.348 126.513,38.583C124.128,36.996 121.42,35.114 118.283,33.521C115.155,31.863 111.684,30.279 107.899,28.982C104.139,27.499 99.998,26.629 95.684,25.846C91.35,25.301 86.775,25.2 82.163,25.403C77.535,25.794 72.909,25.799 68.246,26.365C63.61,26.754 58.999,27.177 54.5,28.07C52.247,28.462 50.013,28.776 47.838,29.258C45.681,29.852 43.544,30.44 41.448,31.017C37.252,32.06 33.298,33.398 29.649,34.968C25.962,36.374 22.543,37.791 19.547,39.507C16.515,41.108 13.736,42.476 11.347,43.849C9.074,45.4 7.078,46.746 5.436,47.854C2.235,50.095 0.405,51.378 0.405,51.378L0,52.647C0.186,53.235 0.818,53.544 1.412,53.347L1.531,53.303C1.531,53.303 3.604,52.597 7.251,51.358C9.035,50.733 11.213,49.969 13.697,49.09C16.223,48.368 19.148,47.733 22.254,46.959C25.318,46.075 28.765,45.553 32.402,45.112C34.183,44.853 36.021,44.573 37.903,44.295C39.803,44.092 41.759,44.043 43.715,43.9C45.681,43.777 47.665,43.655 49.675,43.531C51.698,43.542 53.749,43.559 55.805,43.578C59.888,43.457 64.069,43.814 68.218,44.178C76.51,44.76 84.554,47.488 92.108,48.749C99.696,50.01 106.99,50.363 113.424,50.716C119.881,50.9 125.441,51.023 129.518,50.823C133.575,50.676 136.068,50.424 136.068,50.424L136.68,50.189C137.249,49.79 137.393,48.989 136.987,48.4Z" style="fill:rgb(255,211,124);fill-rule:nonzero;"/>
        </g>
    </g>
</svg>
